<svg width="150" height="40" viewBox="0 0 150 40" fill="none" xmlns="http://www.w3.org/2000/svg">
<rect width="12.4066" height="6.90698" rx="3.45349" transform="matrix(1 1.80394e-09 -1.73244e-09 -1 9 17.5581)" fill="#092A4D"/>
<path fill-rule="evenodd" clip-rule="evenodd" d="M13.4605 22.8023C14.0285 20.5956 16.0316 18.9651 18.4156 18.9651L24.9061 18.9651L29.6493 14.0262L24.934 9.11629L15.8575 9.11629C14.4446 9.11629 13.2993 7.97097 13.2993 6.55815C13.2993 5.14533 14.4446 4.00001 15.8575 4.00001L26.9343 4.00001L26.9343 4.03635L26.9692 4L33.1236 10.4084L33.1362 10.3953C34.0988 11.3977 34.5785 12.7125 34.5753 14.0262C34.5785 15.3399 34.0988 16.6547 33.1362 17.657L33.1236 17.644L26.9692 24.0524L26.9343 24.016L26.9343 24.0814L19.1955 24.0814L19.1955 34.0519C19.1955 35.6801 17.8756 37 16.2474 37C14.6192 37 13.2993 35.6801 13.2993 34.0519L13.2993 24.0814C13.2993 24.0796 13.2993 24.0778 13.2993 24.076L13.2993 22.8023L13.4605 22.8023Z" fill="#1159A5" fill-opacity="0.72"/>
<path fill-rule="evenodd" clip-rule="evenodd" d="M106.938 9H91C91 13.1421 94.3579 16.5 98.5 16.5H107.992V26.5H97.5625V23.0625C97.5625 19.4381 94.6244 16.5 91 16.5V26.5V28.625H91.3053C92.2216 31.7322 95.096 34 98.5 34H114.438V28.625V26.5V16.5V15.625H114.387C113.954 11.8951 110.784 9 106.938 9Z" fill="#092A4D"/>
<path fill-rule="evenodd" clip-rule="evenodd" d="M137.785 9H116C116 11.8407 118.303 14.1435 121.143 14.1435H134.139C132.642 21.8665 125.228 27.8065 116.216 27.9495L116.308 33.9959C129.225 33.7914 139.735 24.8539 140.998 13.5392L140.81 13.5422C140.92 13.1484 140.985 12.7355 140.998 12.3095C140.999 12.2781 141 12.2465 141 12.2147L141 12.1883L141 12.1549V11.8854H140.983C140.818 10.2647 139.449 9 137.785 9ZM125.108 16.9035H116C116 19.4671 118.078 21.5452 120.642 21.5452H129.75C129.75 18.9817 127.672 16.9035 125.108 16.9035ZM90.7908 11.4914C90.7911 11.5666 90.7918 11.642 90.793 11.7174C90.7942 11.7935 90.7957 11.8696 90.7977 11.9455L90.7908 11.4914Z" fill="#092A4D"/>
<path fill-rule="evenodd" clip-rule="evenodd" d="M64 9H83.875C86.7055 9 89 11.2945 89 14.125V19C89 21.8305 86.7055 24.125 83.875 24.125H70.75V28.875H83.875C86.7055 28.875 89 31.1695 89 34H69.125C66.2945 34 64 31.7055 64 28.875V24.125V24H64.0015C64.0679 21.2273 66.3363 19 69.125 19H81.25V18.9992C82.339 18.9661 83.2133 17.8878 83.2133 16.5625C83.2133 15.2372 82.339 14.1589 81.25 14.1258V14.125H69.125C66.2945 14.125 64 11.8305 64 9Z" fill="#092A4D"/>
<path fill-rule="evenodd" clip-rule="evenodd" d="M55.5 9H38C38 12.0755 39.8511 14.7186 42.5 15.8759V26.5H38C38 30.6421 41.3579 34 45.5 34H63C63 30.8287 61.0317 28.117 58.25 27.0202V16.5H63C63 12.3579 59.6421 9 55.5 9ZM53 16.5H47.75V26.5H53V16.5Z" fill="#092A4D"/>
</svg>
